PathFileType	4	(X/Y/Z)	C:\Users\Basilio\Documents\Thesis Gigler\squatting_fais\c3dfiles\073\SLS_back_pre3\markers_experimental.trc
DataRate	CameraRate	NumFrames	NumMarkers	Units	OrigDataRate	OrigDataStartFrame	OrigNumFrames
200.000000	200.000000	4	61	mm	200.000000	0	1317
Frame#	Time	FHD			LBHD			RBHD			C7			T10			CLAV			LSHO			LUUPA			LMUPA			LDUPA			LLEP			LMEP			LRAD			LUL			LRFIN			RSHO			RUPA1			RMUPA			RDUPA			RLEP			RMEP			RUL			RUFIN			LASI			RASI			USACR			LSACR			RSACR			LTHI1			LTHI2			LTHI3			LTHI4			LLFC			LMFC			LTIB1			LTIB2			LTIB3			LTIB4			LLMAL			LMMAL			LHEE			LMT1			LMT2			LMT5			RTHI			RTHI2			RTHI3			RTHI4			RLFC			RMFC			RTIB1			RTIB2			RTIB3			RTIB4			RLMAL			RMMAL			RHEE			RMT1			RMT2			RMT5			RRAD			
		X1	Y1	Z1	X2	Y2	Z2	X3	Y3	Z3	X4	Y4	Z4	X5	Y5	Z5	X6	Y6	Z6	X7	Y7	Z7	X8	Y8	Z8	X9	Y9	Z9	X10	Y10	Z10	X11	Y11	Z11	X12	Y12	Z12	X13	Y13	Z13	X14	Y14	Z14	X15	Y15	Z15	X16	Y16	Z16	X17	Y17	Z17	X18	Y18	Z18	X19	Y19	Z19	X20	Y20	Z20	X21	Y21	Z21	X22	Y22	Z22	X23	Y23	Z23	X24	Y24	Z24	X25	Y25	Z25	X26	Y26	Z26	X27	Y27	Z27	X28	Y28	Z28	X29	Y29	Z29	X30	Y30	Z30	X31	Y31	Z31	X32	Y32	Z32	X33	Y33	Z33	X34	Y34	Z34	X35	Y35	Z35	X36	Y36	Z36	X37	Y37	Z37	X38	Y38	Z38	X39	Y39	Z39	X40	Y40	Z40	X41	Y41	Z41	X42	Y42	Z42	X43	Y43	Z43	X44	Y44	Z44	X45	Y45	Z45	X46	Y46	Z46	X47	Y47	Z47	X48	Y48	Z48	X49	Y49	Z49	X50	Y50	Z50	X51	Y51	Z51	X52	Y52	Z52	X53	Y53	Z53	X54	Y54	Z54	X55	Y55	Z55	X56	Y56	Z56	X57	Y57	Z57	X58	Y58	Z58	X59	Y59	Z59	X60	Y60	Z60	X61	Y61	Z61	

1	0	-153.4011688232422	1680.4990234375	-734.9822387695314	-287.9507751464844	1655.13720703125	-763.5153808593751	-315.1068420410157	1634.350830078125	-631.3192138671876	-351.0525817871094	1535.26953125	-695.6219482421876	-410.6634826660157	1202.312622070313	-722.0856323242189	-231.5863647460938	1445.736450195313	-698.3315429687501	-259.6490783691407	1500.885009765625	-839.2976074218752	-175.7339019775391	1426.816040039063	-932.4195556640627	-135.0639190673828	1446.330322265625	-909.1568603515627	-113.1576309204102	1399.934204101563	-942.5211181640627	-9.137126922607424	1374.232055664063	-943.8509521484377	-15.15074729919434	1316.680297851563	-901.8380126953127	245.3884735107422	1391.65380859375	-819.9058227539065	252.5832519531251	1390.750732421875	-893.9752197265627	327.9672241210938	1398.57763671875	-808.858093261719	-245.6940460205079	1478.611938476563	-550.7280883789064	-155.6672058105469	1365.524536132813	-462.2865600585939	-115.8208465576172	1387.831420898438	-476.6311950683595	-93.38739013671876	1335.281372070313	-458.786590576172	-2.143463373184205	1316.4443359375	-461.2620544433595	-7.880648612976076	1267.424194335938	-528.3698730468751	257.5835266113282	1360.116821289063	-507.7302856445314	337.2234191894532	1384.650390625	-585.2436523437501	-255.7458648681641	1034.209838867188	-856.3634033203127	-252.9885711669922	1024.44921875	-606.4086914062501	-434.3175048828126	1101.410400390625	-727.5326538085939	-448.8303527832032	1074.137573242188	-757.0297851562501	-452.2875366210939	1070.5400390625	-700.5882568359376	-267.2314147949219	708.6343994140626	-912.3109130859377	-225.7890014648438	635.8106079101564	-895.9214477539065	-185.8637390136719	642.5095825195314	-868.2854003906252	-251.9626617431641	581.7072143554689	-890.2837524414065	-261.7259826660157	535.8587646484376	-890.9983520507815	-269.5479125976563	529.0197143554689	-756.6934814453126	-408.111541748047	413.9937438964845	-847.7348632812502	-465.4590759277345	455.6303100585939	-898.1045532226565	-458.3836364746095	416.019256591797	-880.1584472656252	-532.0136718750001	388.7806396484376	-846.8391723632815	-663.3562622070314	408.8716430664064	-874.3545532226565	-635.6423950195314	402.9298706054689	-789.0268554687502	-707.3131713867189	457.6414794921876	-829.5235595703127	-658.8059692382814	239.3156280517579	-794.454040527344	-659.2478027343751	237.7112274169922	-834.2961425781252	-692.9332885742189	265.5495605468751	-884.1314697265627	-353.0452270507813	796.9049072265627	-553.6134643554689	-318.3253784179688	740.7175903320314	-555.9276123046876	-284.7918395996094	741.7996215820314	-556.0703125000001	-344.0489501953126	665.9168701171876	-582.5279541015626	-326.8901367187501	515.8141479492189	-608.4410400390626	-317.5158996582032	514.2069091796876	-739.2741088867189	-285.9714050292969	358.7357482910157	-707.8968505859376	-313.9568481445313	272.3390808105469	-648.4993286132814	-288.3097839355469	273.6038818359376	-689.7882690429689	-307.4490966796876	232.4266052246094	-726.6884155273439	-361.5274658203126	99.21121215820315	-686.7832031250001	-354.8998413085938	129.2053833007813	-770.4324951171877	-431.1308898925782	81.77419281005861	-743.7703247070314	-206.7584533691407	55.4313087463379	-759.8980102539064	-206.2388916015626	51.38839721679689	-718.7460937500001	-248.6639251708985	34.02608108520509	-670.0795288085939	nan	nan	nan	
2	0.005	-153.3888397216797	1680.357055664063	-735.1991577148439	-287.9616394042969	1655.048461914063	-763.8293457031251	-315.1372985839844	1634.234497070313	-631.5588378906251	-351.1071166992188	1535.124267578125	-695.9132690429689	-410.7138977050782	1202.17431640625	-722.1336669921876	-230.6722717285157	1446.121215820313	-698.2192382812501	-259.6875610351563	1500.739501953125	-839.4712524414065	-175.7857666015625	1426.671020507813	-932.5874633789065	-135.0582275390625	1446.226928710938	-909.2725219726565	-113.1342849731446	1399.83056640625	-942.7658691406252	-9.101290702819826	1374.112915039063	-943.9910888671877	-15.08646202087403	1316.571899414063	-902.069519042969	245.4195556640626	1391.650756835938	-820.0916748046877	252.6314849853516	1390.745849609375	-894.144470214844	327.9627990722657	1398.582275390625	-809.0391845703127	-245.7794494628907	1478.51171875	-550.9353637695314	-155.6773223876953	1365.520629882813	-462.4441528320314	-115.8672866821289	1387.808715820313	-476.8126220703126	-93.40970611572267	1335.271118164063	-458.9221496582032	-2.13226342201233	1316.087158203125	-461.3412475585939	-7.879008293151857	1267.423583984375	-528.4789428710939	257.5902709960938	1360.14111328125	-507.8202514648439	337.1976318359376	1384.700439453125	-585.3384399414064	-255.7638854980469	1034.036865234375	-856.3831176757815	-252.9504699707032	1024.337158203125	-606.4229736328126	-434.3027343750001	1101.279541015625	-727.5454101562501	-448.9315185546876	1073.99609375	-757.0562133789064	-452.2747802734376	1070.429809570313	-700.6130371093751	-267.2133789062501	708.4830322265626	-912.195251464844	-225.7666320800782	635.6660156250001	-895.7835693359377	-185.8605194091797	642.3579101562501	-868.1563110351565	-252.0102996826172	581.5281372070314	-890.1284179687502	-261.6582641601563	535.6727294921876	-890.8369750976565	-269.5776367187501	528.9277954101564	-756.5477905273439	-408.1023864746095	413.8681640625001	-847.5904541015627	-465.4831848144532	455.4798889160157	-897.9287719726565	-458.8848876953126	415.9880371093751	-880.3206787109377	-532.0596923828126	388.6631469726564	-846.711364746094	-663.3392333984376	408.7864685058595	-874.2709960937502	-635.8584594726564	403.0208435058595	-788.7825927734377	-707.3549194335939	457.5818786621095	-829.4003906250002	-658.9187011718751	239.2794342041016	-794.2102050781252	-659.1906127929689	237.6986083984376	-834.0830688476565	-692.9869384765626	265.4706115722657	-883.950622558594	-352.8608093261719	796.711608886719	-553.7469482421876	-318.1065063476563	740.4669799804689	-556.1747436523439	-284.6601867675782	741.5523071289064	-556.3441772460939	-343.9195556640626	665.7202758789064	-582.8149414062501	-327.0657958984376	515.5916748046876	-608.4152832031251	-319.8436889648438	514.4453735351564	-739.4036254882814	-286.0891418457032	358.6788940429688	-708.6943359375001	-313.6456298828126	272.2377319335938	-649.1191406250001	-288.2778320312501	273.5723266601563	-690.5264282226564	-307.5788269042969	232.3583221435547	-727.3563842773439	-361.4660644531251	99.37538909912112	-687.1539916992189	-355.0038452148438	129.0141143798828	-770.8713989257815	-431.1838378906251	81.6810760498047	-743.8807373046876	-206.706771850586	55.33208084106447	-760.0223999023439	-206.2671813964844	51.42788696289064	-718.8397216796876	-248.6653289794922	34.14386367797852	-670.1960449218751	nan	nan	nan	
3	0.01	-151.0347595214844	1680.49853515625	-735.4825439453126	-288.0294799804688	1654.861206054688	-764.0960693359376	-315.2056579589844	1634.117553710938	-631.8240356445314	-351.1001281738282	1534.95703125	-696.2106933593751	-410.7455444335939	1202.024169921875	-722.1926269531251	-230.6997985839844	1445.98974609375	-698.3945312500001	-259.7325744628907	1500.559936523438	-839.7376098632815	-175.7825164794922	1426.539306640625	-932.7542114257815	-135.0640716552735	1446.087768554688	-909.4720458984377	-113.1075820922852	1399.662353515625	-942.9016113281252	-9.103931427001955	1374.08447265625	-944.1552734375002	-15.07116317749024	1316.346069335938	-903.346130371094	245.4532470703126	1391.6181640625	-820.225524902344	252.6147155761719	1390.727661132813	-894.327819824219	327.9617919921876	1398.569702148438	-809.1792602539065	-245.7857666015626	1478.783203125	-550.9202880859376	-155.738510131836	1365.512329101563	-462.6051635742189	-115.913932800293	1387.774780273438	-476.992401123047	-93.43775939941408	1335.276000976563	-459.0390014648439	-2.149354457855225	1316.479614257813	-461.4789428710939	-7.871175765991213	1267.412231445313	-528.5206298828126	257.5509643554688	1360.218872070313	-507.8586425781251	337.1825256347657	1384.7578125	-585.4089355468751	-255.7618408203126	1033.972900390625	-856.371765136719	-252.8587951660157	1024.21923828125	-606.4448852539064	-434.3051147460939	1101.1103515625	-727.5073852539064	-446.1835937500001	1073.37841796875	-756.7487182617189	-451.9836425781251	1070.474853515625	-700.5276489257814	-267.2160949707032	708.2785644531251	-912.118591308594	-225.8153533935547	635.5041503906251	-895.6378173828127	-185.8924102783203	642.2002563476564	-867.9742431640627	-252.0010223388672	581.3484497070314	-889.9443359375002	-261.6808166503907	535.5620727539064	-890.660827636719	-269.6335754394532	528.8104248046876	-756.3975219726564	-408.1470031738282	413.7537841796876	-847.3305664062502	-465.4953918457032	455.3306884765626	-897.7639770507815	-458.394500732422	415.8157958984376	-879.8042602539065	-532.0637817382814	388.624969482422	-846.5120849609377	-663.7714843750001	408.2707519531251	-873.5782470703127	-636.1104125976564	403.0593872070314	-788.4028930664065	-707.4241333007814	457.554656982422	-829.2857055664065	-659.0420532226564	239.2421875000001	-794.0339355468752	-659.2610473632814	237.6737365722657	-833.881042480469	-693.0336914062501	265.4184265136719	-883.7908325195315	-352.6356201171876	796.4785766601565	-553.9216918945314	-317.8763732910157	740.2272338867189	-556.4030761718751	-284.4352416992188	741.3029174804689	-556.7369995117189	-343.8263549804688	665.5614013671876	-583.0671997070314	-326.7707519531251	515.4204101562501	-608.9169311523439	-320.2954406738282	514.3088378906251	-739.9625854492189	-286.2088928222657	358.7108459472657	-709.6367187500001	-313.3916320800782	272.1369018554688	-649.7572631835939	-288.2904663085938	273.5308532714844	-691.3675537109376	-307.6821289062501	232.3167572021485	-728.0120849609376	-361.3674316406251	99.50439453125003	-687.5495605468751	-355.1554565429688	128.764144897461	-771.2786865234377	-431.1298828125001	81.59449768066408	-744.0109863281251	-206.6720428466797	55.30875396728517	-760.1347045898439	-206.2206420898438	51.53311157226564	-718.9385375976564	-248.6573638916016	34.26434707641602	-670.2746582031251	nan	nan	nan	
4	0.015	-153.4280700683594	1680.0048828125	-735.6005859375001	-287.9939575195313	1654.699340820313	-764.3683471679689	-315.0531921386719	1633.824829101563	-631.8180541992189	-351.1469116210938	1534.822509765625	-696.4847412109376	-410.7498779296876	1201.831298828125	-722.2458496093751	-230.6879272460938	1445.862670898438	-698.6174926757814	-259.7509460449219	1500.357055664063	-839.9221191406252	-175.7371978759766	1426.389038085938	-932.9661865234377	-135.0466918945313	1445.94921875	-909.6889648437502	-113.0157546997071	1399.578247070313	-943.049987792969	-9.011656761169435	1374.039306640625	-944.3538818359377	-15.0511474609375	1316.184326171875	-903.5171508789065	245.4500885009766	1391.621459960938	-820.404724121094	252.6084442138672	1390.741943359375	-894.5096435546877	327.9785156250001	1398.58056640625	-809.3557739257815	-245.8150024414063	1478.340698242188	-551.3977050781251	-155.7612609863282	1365.44775390625	-462.7104492187501	-115.9604568481446	1387.7529296875	-477.1656188964845	-93.44045257568361	1335.273681640625	-459.1744384765626	-2.142240524291993	1316.09716796875	-461.5089111328126	-7.825658321380617	1267.392211914063	-528.6287231445314	257.5221862792969	1360.26220703125	-508.0095825195314	337.1793212890626	1384.782470703125	-585.4423217773439	-255.8752136230469	1033.748657226563	-856.4106445312502	-252.8267364501954	1024.081420898438	-606.4741821289064	-434.3170471191407	1100.946533203125	-727.5018920898439	-446.2533569335939	1073.267944335938	-756.7572021484376	-452.0010375976564	1070.296752929688	-700.4935302734376	-267.1879577636719	708.0745849609376	-911.9931640625002	-225.798080444336	635.3524780273439	-895.4958496093752	-185.866455078125	642.0622558593751	-867.8857421875002	-251.9187469482422	581.1431274414064	-889.771423339844	-261.6993408203126	535.3963623046876	-890.5440063476565	-269.6601867675782	528.6708984375001	-756.4119873046876	-408.1008300781251	413.5967712402345	-847.1838378906252	-465.4893493652345	455.2505798339845	-897.6215820312502	-458.3716430664064	415.6680603027345	-879.591003417969	-532.1411743164064	388.5130920410157	-846.3110961914065	-663.8148803710939	408.2104492187501	-873.4380493164065	-636.1233520507814	403.0237731933595	-788.3438720703127	-707.4356689453126	457.5085754394532	-829.1538085937502	-659.4149780273439	239.1754608154297	-793.5378417968752	-660.1716918945314	236.8450469970704	-832.9695434570315	-693.0683593750001	265.3743896484376	-883.6384277343752	-352.3758850097657	796.3107910156252	-554.0437622070314	-317.6514587402344	740.0376586914064	-556.6066894531251	-284.1852111816407	741.0709838867189	-557.1240844726564	-343.6599731445313	665.3809814453126	-583.3554687500001	-326.6222839355469	515.3291625976564	-609.3245849609376	-320.7129516601563	514.3325805664064	-740.3557739257814	-287.9790954589844	358.6764831542969	-710.1604003906251	-313.1408996582032	272.0177917480469	-650.3543701171876	-288.3150939941407	273.4513244628907	-692.1834716796876	-307.8849487304688	232.2474517822266	-728.7786254882814	-361.2891540527344	99.63031768798831	-687.8899536132814	-355.2677917480469	128.5829467773438	-771.7720947265627	-431.1966247558595	81.48304748535158	-744.1604614257814	-206.6328582763672	55.21858978271486	-760.2645874023439	-206.2266235351563	51.58058166503908	-719.0737915039064	-248.6418457031251	34.35167312622071	-670.4267578125001	nan	nan	nan	
